<?xml version="1.0" standalone="no"?>
<!DOCTYPE svg PUBLIC "-//W3C//DTD SVG 20010904//EN"
 "http://www.w3.org/TR/2001/REC-SVG-20010904/DTD/svg10.dtd">
<svg version="1.0" xmlns="http://www.w3.org/2000/svg"
 width="628.000000pt" height="623.000000pt" viewBox="0 0 628.000000 623.000000"
 preserveAspectRatio="xMidYMid meet">

<g transform="translate(0.000000,623.000000) scale(0.100000,-0.100000)"
fill="#000000" stroke="none">
<path d="M2935 3929 c-455 -47 -853 -207 -1214 -489 -50 -39 -79 -71 -100
-111 -37 -67 -61 -156 -61 -221 l0 -48 434 0 433 0 7 71 c31 314 219 550 511
641 81 25 233 34 320 19 234 -41 429 -193 529 -413 40 -88 54 -143 63 -243 l6
-75 524 0 c579 0 561 -2 508 62 -14 18 -72 80 -128 137 -286 291 -607 482
-997 592 -149 42 -229 57 -386 74 -149 16 -320 17 -449 4z"/>
<path d="M3005 3705 c-268 -59 -474 -303 -487 -575 l-3 -65 136 -3 136 -3 5
64 c7 83 36 145 98 211 72 77 148 109 256 109 70 0 91 -4 145 -30 121 -57 195
-158 207 -282 l7 -66 138 -3 137 -3 0 41 c0 182 -108 384 -267 502 -139 102
-333 142 -508 103z"/>
<path d="M3078 3356 c-121 -33 -206 -137 -208 -254 l0 -42 278 2 277 3 -2 34
c-8 173 -182 303 -345 257z"/>
<path d="M1426 3157 c-68 -78 -67 -97 4 -97 l48 0 4 78 c3 42 4 78 2 80 -1 2
-27 -26 -58 -61z"/>
<path d="M1853 2804 c-84 -42 -104 -175 -37 -245 54 -57 145 -58 195 -2 l24
27 -33 -27 c-82 -66 -182 -5 -182 111 0 85 43 142 108 142 43 0 68 -14 86 -48
l15 -27 1 36 c0 36 -1 36 -46 43 -70 9 -96 7 -131 -10z"/>
<path d="M2080 2813 c8 -3 18 -11 22 -17 13 -19 9 -251 -4 -264 -9 -9 -6 -12
17 -12 23 0 26 3 17 12 -8 8 -12 51 -12 127 0 135 0 135 75 -31 l48 -108 55
120 c30 66 59 120 63 120 12 0 11 -183 -1 -214 -9 -25 -8 -26 27 -26 29 0 34
3 25 12 -8 8 -12 54 -12 140 0 110 2 128 18 137 14 9 11 10 -18 11 l-35 0 -49
-110 c-26 -61 -52 -113 -57 -116 -5 -3 -34 47 -63 110 l-55 116 -38 -1 c-21 0
-31 -3 -23 -6z"/>
<path d="M2543 2800 c-43 -26 -63 -68 -63 -132 0 -70 27 -113 85 -139 39 -17
50 -18 85 -8 113 34 145 176 60 261 -33 34 -43 38 -86 38 -31 0 -61 -7 -81
-20z m134 -14 c26 -22 28 -31 31 -108 4 -79 2 -86 -23 -116 -45 -54 -124 -42
-151 23 -29 69 -6 201 38 218 33 13 78 6 105 -17z"/>
<path d="M2800 2793 c1 -24 2 -25 11 -10 7 11 22 17 49 17 l40 0 0 -128 c0
-86 -4 -132 -12 -140 -9 -9 -2 -12 33 -11 24 0 38 3 32 6 -10 3 -13 41 -13
139 l0 134 34 0 c19 0 42 -7 50 -16 15 -14 16 -13 16 10 l0 26 -120 0 -120 0
0 -27z"/>
<path d="M3080 2813 c8 -3 18 -11 22 -17 12 -17 9 -235 -2 -257 -10 -17 -7
-19 32 -18 24 0 37 3 31 6 -9 3 -13 27 -13 69 0 63 0 64 24 58 40 -10 92 13
106 46 30 72 -28 120 -145 119 -38 0 -63 -3 -55 -6z m142 -30 c32 -29 22 -98
-18 -113 -43 -17 -54 -4 -54 66 0 63 1 64 27 64 14 0 35 -7 45 -17z"/>
<path d="M3338 2810 c21 -9 22 -14 22 -138 0 -86 -4 -132 -12 -140 -9 -9 11
-12 90 -12 101 0 103 0 112 26 14 36 12 39 -9 13 -14 -18 -31 -23 -80 -27
l-61 -4 0 72 0 73 51 -5 c28 -3 55 -12 60 -19 6 -10 9 -4 9 19 0 29 -2 32 -19
22 -11 -5 -38 -10 -61 -10 l-41 0 3 63 3 62 43 3 c48 4 92 -18 92 -45 0 -9 2
-14 5 -11 3 3 2 19 -1 36 l-6 32 -112 -1 c-77 0 -104 -3 -88 -9z"/>
<path d="M3659 2809 c23 -9 23 -11 19 -118 -4 -119 -13 -142 -57 -138 -30 2
-40 -13 -17 -28 22 -13 69 24 77 61 4 16 7 68 8 115 1 98 10 112 63 107 l33
-3 3 -129 c2 -86 -1 -133 -9 -142 -9 -12 -4 -14 32 -14 33 0 40 3 31 12 -8 8
-12 54 -12 140 0 124 1 129 23 138 15 6 -17 9 -98 9 -85 0 -113 -3 -96 -10z"/>
<path d="M3913 2809 c15 -9 17 -27 17 -144 0 -97 -3 -135 -12 -138 -7 -3 6 -6
30 -6 39 -1 42 1 32 18 -5 11 -10 42 -10 70 0 74 24 69 86 -19 42 -60 53 -70
79 -70 24 1 27 2 13 10 -9 6 -33 34 -54 63 -20 28 -44 58 -53 65 -13 10 -13
16 -3 30 7 9 22 36 34 60 20 38 26 43 53 40 22 -2 31 2 33 15 3 15 -2 18 -30
15 -29 -3 -36 -9 -60 -57 -28 -58 -50 -81 -80 -81 -15 0 -18 9 -18 60 0 46 4
61 18 69 13 8 4 10 -38 10 -42 0 -51 -2 -37 -10z"/>
<path d="M4325 2785 c-76 -184 -97 -231 -112 -247 -15 -17 -15 -18 10 -18 19
0 24 4 21 18 -3 9 2 34 11 55 l16 38 59 -2 c53 -2 60 -5 69 -28 20 -56 21 -65
9 -73 -8 -4 4 -8 31 -8 41 0 43 1 29 18 -8 9 -32 60 -53 112 -21 52 -47 113
-56 135 l-18 40 -16 -40z m33 -85 c12 -28 22 -52 22 -55 0 -3 -22 -5 -50 -5
-27 0 -50 3 -50 6 0 13 43 104 49 104 4 0 17 -23 29 -50z"/>
<path d="M2682 2285 c3 -3 65 -15 139 -26 170 -25 422 -27 609 -5 248 30 213
34 -279 35 -261 1 -472 -1 -469 -4z"/>
</g>
</svg>
